<svg width="210" height="158" viewBox="0 0 210 158" fill="none" xmlns="http://www.w3.org/2000/svg">
<ellipse cx="104.995" cy="78.532" rx="93.8202" ry="58.296" transform="rotate(-13.4594 104.995 78.532)" fill="#E14747"/>
<path d="M44.1588 105.81L43.3893 102.595L44.3501 102.365C46.3931 101.759 46.6638 101.421 46.9165 99.2112L49.3093 78.5159L57.3657 76.5878L68.6083 94.176C69.7527 95.8558 70.3216 96.1104 71.9565 95.7582L73.3239 95.4309L74.0934 98.6461L59.163 102.219L58.3935 99.0042L59.5392 98.73C61.35 98.2966 61.9252 97.9245 61.7749 97.2963C61.7306 97.1115 61.5771 96.7966 61.3955 96.5275L59.6355 93.7447L51.8377 95.6109L51.512 98.6584C51.4334 99.1461 51.4479 99.5334 51.5099 99.7921C51.6602 100.42 52.1849 100.49 53.8849 100.083L55.2522 99.756L56.0217 102.971L44.1588 105.81ZM57.7573 90.7948L53.1563 83.6515L52.2508 92.1127L57.7573 90.7948ZM81.8661 94.6369L80.7442 97.1326L76.7898 98.0789L71.996 78.0486C71.6141 76.6161 71.2565 76.4282 69.4368 76.8247L68.0694 77.1519L67.3618 74.1954L76.8966 71.9135L79.1255 81.2265C80.6049 78.9187 82.063 77.8274 84.4282 77.2613C89.3064 76.0938 93.2406 78.9814 94.6292 84.7836C96.0355 90.6596 93.9682 94.5928 88.8313 95.8222C86.2074 96.4502 84.5788 96.1757 81.8661 94.6369ZM82.9876 81.2008C81.8419 81.475 81.0523 82.0938 80.6363 83.1311C80.136 84.3058 80.1603 85.5503 80.6733 87.6938C81.2836 90.2438 81.843 91.4384 82.8475 92.3702C83.6968 93.1437 84.6988 93.4119 85.8444 93.1377C88.2835 92.554 88.9693 90.358 87.9875 86.2559C87.0234 82.2277 85.4267 80.6171 82.9876 81.2008ZM105.804 72.0674C112.641 70.4311 117.703 72.9706 119.082 78.7358C120.453 84.4641 117.089 89.0202 110.289 90.6476C103.342 92.3104 98.3623 89.7902 96.9471 83.8771C95.6027 78.2598 99.0406 73.686 105.804 72.0674ZM106.555 75.2087C103.229 76.0047 102.483 77.7853 103.571 82.3309C104.712 87.0983 106.138 88.32 109.501 87.5151C112.827 86.7191 113.573 84.9386 112.467 80.319C111.353 75.6625 109.881 74.4127 106.555 75.2087ZM140.412 64.4489L143.437 77.088C143.818 78.5204 144.213 78.6995 146.07 78.2942L147.326 77.9935L148.034 80.95L138.314 83.2762L137.677 80.6153C136.748 82.2834 136.224 83.0339 135.259 83.7339C134.237 84.5255 132.969 85.1026 131.601 85.4299C129.606 85.9075 127.699 85.7777 126.397 85.0733C125.141 84.3971 124.526 83.294 123.854 80.4854L122.244 73.7593C121.862 72.3269 121.541 72.1301 120.137 72.4662L119.287 72.6696L118.57 69.6761L127.255 67.5976L129.988 79.0171C130.484 81.0867 131.803 81.865 133.983 81.3431C136.496 80.7417 137.417 79.0366 136.745 76.228L135.4 70.6106C135.018 69.1781 134.698 68.9814 133.256 69.3263L132.887 69.4147L132.17 66.4213L140.412 64.4489ZM149.539 65.4294L146.508 66.1547L145.845 63.383C149.037 62.1893 150.234 59.5192 149.606 55.0981L153.265 54.2224L154.883 60.9854L160.131 59.7295L160.847 62.7229L155.6 63.9789L157.776 73.0702C158.023 74.1049 158.131 74.3917 158.358 74.689C158.75 75.1814 159.375 75.3444 160.114 75.1675C161.666 74.796 161.906 73.8399 161.19 70.8464L160.801 69.2203L163.757 68.5128L164.376 71.0997C164.925 73.391 164.896 74.4138 164.256 75.6608C163.401 77.3112 161.749 78.4098 159.384 78.9759C156.834 79.5862 155.003 79.282 153.587 78.0972C152.499 77.1462 152.166 76.4055 151.494 73.5968L149.539 65.4294Z" fill="#FFDEB7"/>
</svg>
