<svg width="24" height="24" viewBox="0 0 24 24" fill="none" xmlns="http://www.w3.org/2000/svg">
<g clip-path="url(#clip0_207_401)">
<path d="M23.25 12C23.25 5.37258 18.0453 0 11.625 0C5.20469 0 0 5.37258 0 12C0 17.9895 4.25112 22.954 9.80859 23.8542V15.4688H6.85693V12H9.80859V9.35625C9.80859 6.34875 11.5441 4.6875 14.1995 4.6875C15.4714 4.6875 16.8018 4.92188 16.8018 4.92188V7.875H15.3359C13.8918 7.875 13.4414 8.79998 13.4414 9.74897V12H16.6655L16.1501 15.4688H13.4414V23.8542C18.9989 22.954 23.25 17.9895 23.25 12Z" fill="#E14747"/>
<path d="M16.1501 15.4688L16.6655 12H13.4414V9.74897C13.4414 8.79998 13.8917 7.875 15.3359 7.875H16.8018V4.92188C16.8018 4.92188 15.4714 4.6875 14.1995 4.6875C11.5441 4.6875 9.80859 6.34875 9.80859 9.35625V12H6.85693V15.4688H9.80859V23.8542C10.4004 23.9501 11.0071 24 11.625 24C12.2429 24 12.8495 23.9501 13.4414 23.8542V15.4688H16.1501Z" fill="#FBE4C9"/>
</g>
<defs>
<clipPath id="clip0_207_401">
<rect width="23.25" height="24" fill="white"/>
</clipPath>
</defs>
</svg>
